PathFileType	4	(X/Y/Z)	C:/Users/opensim2020/Desktop/walking_exp_matlab/subject06_walking19_straight_01.trc																																																																																																																																																	
DataRate	CameraRate	NumFrames	NumMarkers	Units	OrigDataRate	OrigDataStartFrame	OrigNumFrames																																																																																																																																													
100	100	7	49	mm	100	1156	472																																																																																																																																													
Frame#	Time	LFHD			RFHD			LBHD			RBHD			C7			T10			CLAV			STRN			RBAK			LSHO			LUPA			LELB			LFRM			LWRA			LWRB			LFIN			RSHO			RUPA			RELB			RFRM			RWRA			RWRB			RFIN			LASI			RASI			LPSI			RPSI			LTHI			LKNE			LTIB			LANK			LHEE			LTOE			RTHI			RKNE			RTIB			RANK			RHEE			RTOE			*39			*40			*41			*42			*43			*44			*45			*46			*47			*48		
		X1	Y1	Z1	X2	Y2	Z2	X3	Y3	Z3	X4	Y4	Z4	X5	Y5	Z5	X6	Y6	Z6	X7	Y7	Z7	X8	Y8	Z8	X9	Y9	Z9	X10	Y10	Z10	X11	Y11	Z11	X12	Y12	Z12	X13	Y13	Z13	X14	Y14	Z14	X15	Y15	Z15	X16	Y16	Z16	X17	Y17	Z17	X18	Y18	Z18	X19	Y19	Z19	X20	Y20	Z20	X21	Y21	Z21	X22	Y22	Z22	X23	Y23	Z23	X24	Y24	Z24	X25	Y25	Z25	X26	Y26	Z26	X27	Y27	Z27	X28	Y28	Z28	X29	Y29	Z29	X30	Y30	Z30	X31	Y31	Z31	X32	Y32	Z32	X33	Y33	Z33	X34	Y34	Z34	X35	Y35	Z35	X36	Y36	Z36	X37	Y37	Z37	X38	Y38	Z38	X39	Y39	Z39	X40	Y40	Z40	X41	Y41	Z41	X42	Y42	Z42	X43	Y43	Z43	X44	Y44	Z44	X45	Y45	Z45	X46	Y46	Z46	X47	Y47	Z47	X48	Y48	Z48	X49	Y49	Z49
																																																																																																																																																				
296	2.95	341.69724	1666.73352	1362.92358	345.27121	1656.52271	1494.31897	212.72783	1603.07629	1366.13965	217.18988	1598.30164	1496.01501	221.07544	1450.99658	1423.44946	186.56601	1124.63	1423.7179	331.00528	1375.10083	1422.30969	371.11331	1199.40674	1418.6759	150.76672	1284.44519	1506.94971	272.95108	1405.45886	1261.05115	250.64937	1204.86523	1189.81421	235.15707	1094.01294	1180.37061	246.09074	944.13312	1155.61194	299.98969	824.53333	1192.49878	237.28886	824.75439	1157.40979	271.70184	739.88458	1154.95349	292.6004	1409.37012	1582.43103	263.43481	1212.15576	1675.34265	272.64719	1089.63342	1684.97253	289.7251	970.25543	1700.40112	345.01935	830.69604	1662.44446	296.97678	832.45392	1708.573	334.01654	756.3269	1706.75098	375.2995	965.30823	1325.2959	349.41107	964.13599	1543.62231	215.89761	995.3877	1335.34778	201.47401	993.56415	1502.00159	328.11313	652.11456	1256.75879	341.9054	488.94537	1280.25134	346.89114	233.92932	1295.04871	376.80804	66.00443	1343.5332	339.75089	52.69678	1392.03687	524.95319	41.73688	1344.46252	259.30948	631.05316	1597.96082	249.81039	503.49017	1586.89539	75.16357	299.1553	1586.73071	-41.04104	151.18797	1544.43286	-86.40059	154.48793	1501.2085	59.88927	36.07717	1525.177	240.13608	1698.59082	1424.42822	NaN	NaN	NaN	NaN	NaN	NaN	NaN	NaN	NaN	NaN	NaN	NaN	NaN	NaN	NaN	NaN	NaN	NaN	NaN	NaN	NaN	NaN	NaN	NaN	NaN	NaN	NaN
297	2.96	348.15335	1667.43091	1360.90747	351.5112	1657.12646	1492.27649	219.27225	1603.53943	1363.86401	223.56813	1598.729	1493.62415	227.83331	1451.44897	1421.01514	193.85588	1124.92688	1420.98523	337.89902	1375.75171	1420.23267	378.24677	1200.01807	1416.81445	157.38313	1284.52209	1503.93079	280.10864	1406.25464	1258.82043	258.14914	1205.82202	1187.14148	242.79646	1094.88733	1177.72852	254.68674	945.04639	1153.0199	308.94037	825.71899	1190.30652	246.56326	825.47314	1154.98279	281.47287	740.95557	1152.48499	298.73196	1409.95667	1580.24475	269.5289	1212.75562	1673.15735	278.7493	1090.28003	1682.80676	296.05383	970.93848	1698.51196	351.29095	831.38672	1660.57397	303.34311	833.22095	1707.02637	340.39032	756.91022	1704.76379	382.51846	965.19116	1323.98157	355.52835	964.72534	1541.90454	223.03371	996.09705	1333.25769	207.79585	994.10394	1499.71265	333.21542	652.24524	1255.29858	344.99213	488.71982	1279.01526	347.92865	233.8609	1294.23315	376.85574	65.91981	1343.53394	340.0076	52.35328	1391.74194	525.23035	41.30061	1345.06238	267.50827	631.44397	1598.17041	260.52106	503.68488	1587.99463	84.3129	301.85895	1586.60059	-34.41759	156.1916	1544.48926	-79.24586	161.13058	1500.89722	61.06109	36.65681	1525.00391	246.39822	1699.10388	1422.26611	NaN	NaN	NaN	NaN	NaN	NaN	NaN	NaN	NaN	NaN	NaN	NaN	NaN	NaN	NaN	NaN	NaN	NaN	NaN	NaN	NaN	NaN	NaN	NaN	NaN	NaN	NaN
298	2.97	354.53577	1667.94067	1358.93945	357.56723	1657.60559	1490.3197	225.78966	1603.78442	1361.5481	229.82658	1598.93091	1491.22864	234.58939	1451.77295	1418.5481	200.79213	1125.09961	1418.38037	344.84647	1375.99707	1417.93042	385.25681	1200.35059	1415.04089	163.88194	1284.4292	1500.80994	287.42081	1406.68567	1256.60803	265.78793	1206.43201	1184.40833	250.85599	1095.41528	1174.91296	263.42139	945.59253	1150.40894	318.17548	826.64709	1188.02673	255.83069	825.91144	1152.62915	291.54913	741.56232	1150.47705	304.75775	1410.2262	1578.08789	275.24301	1213.05225	1670.96643	284.98456	1090.62708	1680.89514	302.06036	971.37061	1696.54199	357.62006	831.84497	1658.84607	309.77582	833.57605	1705.18689	346.8493	757.32172	1702.99915	389.46133	964.96021	1322.63464	361.54633	965.15985	1540.39258	229.97214	996.48346	1331.29053	213.76538	994.38922	1497.69617	338.20285	652.30341	1253.90259	347.92798	488.60815	1277.72205	349.03857	233.76311	1293.43225	377.05698	65.84048	1343.58179	340.03442	52.31596	1391.5874	525.55011	40.92801	1345.4812	275.79697	631.61841	1598.28857	271.17062	503.72784	1588.89807	93.80704	304.289	1586.55017	-27.64942	161.18286	1544.44629	-71.97048	167.71632	1500.6167	62.92772	38.01467	1524.78052	252.56824	1699.35632	1420.03784	NaN	NaN	NaN	NaN	NaN	NaN	NaN	NaN	NaN	NaN	NaN	NaN	NaN	NaN	NaN	NaN	NaN	NaN	NaN	NaN	NaN	NaN	NaN	NaN	NaN	NaN	NaN
299	2.98	360.88116	1668.34265	1356.96765	363.36929	1657.95007	1488.20239	232.27284	1603.77173	1359.22083	235.92049	1598.88684	1488.98645	241.3959	1451.98779	1416.07092	207.62677	1125.05432	1415.92993	351.50806	1376.18225	1415.95508	392.0603	1200.45459	1413.30835	170.29991	1284.27356	1497.6676	294.83463	1406.88416	1254.37939	273.73517	1206.60559	1181.89807	259.32071	1095.56921	1172.23669	272.46985	945.83057	1147.69446	327.46643	827.25208	1185.71643	265.43018	826.00385	1150.18372	301.62003	742.04163	1147.82666	310.68167	1410.26953	1575.9917	280.59232	1213.11365	1668.67468	290.48172	1090.73743	1678.84851	308.22348	971.53119	1694.76099	363.93384	832.1958	1657.18555	316.06149	833.74243	1703.43689	353.33414	757.69092	1701.3894	396.45078	964.75128	1321.25098	367.51736	965.24756	1538.96387	236.62943	996.69366	1329.51355	220.02002	994.29816	1495.87537	342.99432	652.40381	1252.67163	350.78903	488.61948	1276.36511	350.2421	233.61688	1292.72205	377.25748	65.76302	1343.58362	340.22372	52.19717	1391.5343	525.98218	40.63531	1345.69287	284.34125	631.59509	1598.34778	282.14133	503.41391	1589.73853	103.61198	306.4176	1586.58752	-20.67383	165.98897	1544.14844	-64.62212	173.97845	1500.44067	66.21239	40.30054	1524.78369	258.63483	1699.40491	1417.78125	NaN	NaN	NaN	NaN	NaN	NaN	NaN	NaN	NaN	NaN	NaN	NaN	NaN	NaN	NaN	NaN	NaN	NaN	NaN	NaN	NaN	NaN	NaN	NaN	NaN	NaN	NaN
300	2.99	367.17667	1668.60217	1355.0332	369.26648	1658.22339	1486.28943	238.81044	1603.55798	1356.89685	242.04169	1598.72803	1486.69983	247.90985	1452.11377	1413.68958	214.13921	1125.05554	1413.73071	358.1683	1376.198	1414.04028	398.64346	1200.3728	1411.62073	176.38519	1284.22852	1494.68921	302.31976	1406.82275	1252.1748	281.69989	1206.64087	1179.05652	267.82434	1095.40393	1169.35229	281.81982	945.7525	1144.96838	337.05225	827.54327	1183.396	275.04306	825.9408	1147.57178	312.44092	742.14368	1145.45679	316.47174	1410.15564	1574.01831	285.67941	1212.96667	1666.40991	295.97049	1090.62878	1676.91565	313.84335	971.5498	1692.85327	370.27039	832.36591	1655.64453	322.14987	833.81262	1701.71875	360.24667	758.09406	1700.22009	403.31717	964.56781	1319.81409	373.40121	965.21936	1537.68958	242.84186	996.80774	1327.99683	225.81969	994.02197	1494.32263	347.44312	652.67499	1251.62268	353.7037	488.73831	1275.06812	351.5903	233.56044	1291.99683	377.42014	65.72643	1343.53198	340.24136	52.1982	1391.35803	526.10016	40.29945	1345.79175	293.82886	631.24677	1598.02429	292.97552	503.07611	1590.32727	113.54649	308.52271	1586.30835	-13.36324	170.70822	1543.34924	-56.92647	179.5773	1499.46838	70.86389	42.79926	1525.55225	264.58377	1699.3385	1415.58276	NaN	NaN	NaN	NaN	NaN	NaN	NaN	NaN	NaN	NaN	NaN	NaN	NaN	NaN	NaN	NaN	NaN	NaN	NaN	NaN	NaN	NaN	NaN	NaN	NaN	NaN	NaN
301	3	373.42407	1668.62939	1353.23682	375.34219	1658.50391	1484.49146	245.27946	1603.27551	1354.59375	248.18889	1598.52209	1484.39722	254.4476	1452.27539	1411.30994	220.49013	1125.08374	1411.74194	364.63965	1376.21216	1412.27734	404.96716	1200.20959	1410.02368	182.48726	1284.13892	1491.79675	309.82452	1406.58472	1250.02905	290.1449	1206.23792	1176.65881	276.03143	1095.12292	1166.22852	291.24768	945.50153	1142.21912	346.70032	827.57025	1181.19336	284.83115	825.5545	1144.9397	322.7933	742.04456	1143.02173	322.01202	1410.01306	1572.05115	290.56433	1212.67065	1664.0863	301.3392	1090.51135	1675.24268	319.42676	971.40192	1691.0603	376.48767	832.44318	1654.29309	328.02469	833.78076	1700.09338	366.12695	758.14594	1698.60437	409.0401	964.21045	1318.52258	379.28348	964.98578	1536.53125	248.86389	996.79645	1326.68152	231.37505	993.68671	1493.1438	351.7291	652.90723	1250.70837	356.74683	488.89069	1273.92249	352.57843	233.59091	1291.43872	377.51279	65.66314	1343.47937	340.16592	52.326	1391.25195	526.25659	40.09728	1346.05444	302.70023	630.78687	1597.82373	303.78156	502.78476	1590.54822	123.45992	310.51303	1585.73157	-5.6376	175.16188	1542.11047	-48.81331	184.33405	1497.73022	77.9313	46.37835	1528.09644	270.5553	1699.20203	1413.27905	NaN	NaN	NaN	NaN	NaN	NaN	NaN	NaN	NaN	NaN	NaN	NaN	NaN	NaN	NaN	NaN	NaN	NaN	NaN	NaN	NaN	NaN	NaN	NaN	NaN	NaN	NaN
302	3.01	379.60989	1668.75989	1351.32129	380.97269	1658.71387	1482.42175	251.72575	1602.99414	1352.35791	254.17027	1598.41077	1482.11145	260.90292	1452.43079	1408.93115	226.74312	1125.05408	1409.91541	370.99423	1376.10913	1410.53845	411.05539	1199.97522	1408.50293	188.01143	1284.21313	1489.13196	317.39188	1406.24878	1247.88306	298.61343	1205.73303	1174.06323	284.9541	1094.64099	1163.3656	300.94458	945.01117	1139.58557	356.3541	827.39374	1178.92883	294.78967	825.05579	1142.21582	333.40088	741.86713	1140.41931	327.62161	1409.80908	1570.20862	295.30597	1212.37195	1661.76892	306.52478	1090.18103	1673.18164	324.95297	971.19458	1689.30261	382.65027	832.49762	1653.07141	333.72784	833.66095	1698.28516	372.27942	758.24268	1697.44019	414.93463	964.06445	1317.14087	385.15259	964.77472	1535.47144	254.38376	996.90466	1325.53503	237.35472	993.18787	1492.0293	356.15192	653.17627	1249.7804	359.80237	489.03195	1272.90576	353.64261	233.66118	1290.91504	377.60706	65.66732	1343.41919	340.86481	51.79843	1390.82104	526.47888	39.97707	1346.34546	311.49207	630.474	1597.55969	314.8472	502.54736	1590.72168	133.35478	312.41452	1584.76758	2.51519	179.14154	1540.59595	-39.8451	187.73096	1495.12195	85.65	49.48459	1530.79358	276.44687	1699.03882	1411.02795	NaN	NaN	NaN	NaN	NaN	NaN	NaN	NaN	NaN	NaN	NaN	NaN	NaN	NaN	NaN	NaN	NaN	NaN	NaN	NaN	NaN	NaN	NaN	NaN	NaN	NaN	NaN
